<mxfile host="app.diagrams.net" agent="Mozilla/5.0 (Windows NT 10.0; Win64; x64) AppleWebKit/537.36 (KHTML, like Gecko) Chrome/138.0.0.0 Safari/537.36" version="28.0.7">
  <diagram name="Page-1" id="2GszQKVtvW3JsHujWH2M">
    <mxGraphModel dx="1389" dy="749" grid="1" gridSize="10" guides="1" tooltips="1" connect="1" arrows="1" fold="1" page="1" pageScale="1" pageWidth="850" pageHeight="1100" math="0" shadow="0">
      <root>
        <mxCell id="0" />
        <mxCell id="1" parent="0" />
        <mxCell id="vO3fwdA1TvqugVM1j4Au-1" value="&lt;b&gt;&lt;i&gt;&lt;u&gt;&lt;font style=&quot;font-size: 14px;&quot;&gt;Student Information System&lt;/font&gt;&lt;/u&gt;&lt;/i&gt;&lt;/b&gt;" style="rounded=0;whiteSpace=wrap;html=1;fillColor=#ffe6cc;strokeColor=#d79b00;" vertex="1" parent="1">
          <mxGeometry x="40" y="20" width="770" height="40" as="geometry" />
        </mxCell>
        <mxCell id="vO3fwdA1TvqugVM1j4Au-27" value="" style="edgeStyle=orthogonalEdgeStyle;rounded=0;orthogonalLoop=1;jettySize=auto;html=1;" edge="1" parent="1" source="vO3fwdA1TvqugVM1j4Au-2" target="vO3fwdA1TvqugVM1j4Au-14">
          <mxGeometry relative="1" as="geometry">
            <Array as="points">
              <mxPoint x="270" y="105" />
              <mxPoint x="270" y="105" />
            </Array>
          </mxGeometry>
        </mxCell>
        <mxCell id="vO3fwdA1TvqugVM1j4Au-30" value="" style="edgeStyle=orthogonalEdgeStyle;rounded=0;orthogonalLoop=1;jettySize=auto;html=1;" edge="1" parent="1" source="vO3fwdA1TvqugVM1j4Au-2" target="vO3fwdA1TvqugVM1j4Au-15">
          <mxGeometry relative="1" as="geometry">
            <Array as="points">
              <mxPoint x="90" y="150" />
              <mxPoint x="90" y="150" />
            </Array>
          </mxGeometry>
        </mxCell>
        <mxCell id="vO3fwdA1TvqugVM1j4Au-2" value="&lt;font style=&quot;font-size: 14px;&quot;&gt;Admin&lt;/font&gt;" style="rounded=0;whiteSpace=wrap;html=1;fillColor=#ffe6cc;strokeColor=#d79b00;" vertex="1" parent="1">
          <mxGeometry x="20" y="80" width="140" height="50" as="geometry" />
        </mxCell>
        <mxCell id="vO3fwdA1TvqugVM1j4Au-28" value="" style="edgeStyle=orthogonalEdgeStyle;rounded=0;orthogonalLoop=1;jettySize=auto;html=1;" edge="1" parent="1" source="vO3fwdA1TvqugVM1j4Au-14" target="vO3fwdA1TvqugVM1j4Au-18">
          <mxGeometry relative="1" as="geometry">
            <Array as="points">
              <mxPoint x="290" y="210" />
              <mxPoint x="290" y="210" />
            </Array>
          </mxGeometry>
        </mxCell>
        <mxCell id="vO3fwdA1TvqugVM1j4Au-14" value="&lt;font style=&quot;font-size: 14px;&quot;&gt;Login to&amp;nbsp;&lt;/font&gt;&lt;div&gt;&lt;font size=&quot;3&quot;&gt;System&lt;/font&gt;&lt;/div&gt;" style="ellipse;whiteSpace=wrap;html=1;aspect=fixed;fillColor=#ffe6cc;strokeColor=#d79b00;" vertex="1" parent="1">
          <mxGeometry x="240" y="65" width="100" height="100" as="geometry" />
        </mxCell>
        <mxCell id="vO3fwdA1TvqugVM1j4Au-31" value="" style="edgeStyle=orthogonalEdgeStyle;rounded=0;orthogonalLoop=1;jettySize=auto;html=1;" edge="1" parent="1" source="vO3fwdA1TvqugVM1j4Au-15" target="vO3fwdA1TvqugVM1j4Au-16">
          <mxGeometry relative="1" as="geometry">
            <Array as="points">
              <mxPoint x="90" y="320" />
              <mxPoint x="90" y="320" />
            </Array>
          </mxGeometry>
        </mxCell>
        <mxCell id="vO3fwdA1TvqugVM1j4Au-15" value="&lt;font style=&quot;font-size: 14px;&quot;&gt;Forgot&lt;/font&gt;&lt;div&gt;&lt;font size=&quot;3&quot;&gt;password&lt;/font&gt;&lt;/div&gt;" style="ellipse;whiteSpace=wrap;html=1;aspect=fixed;fillColor=#ffe6cc;strokeColor=#d79b00;" vertex="1" parent="1">
          <mxGeometry x="30" y="180" width="100" height="100" as="geometry" />
        </mxCell>
        <mxCell id="vO3fwdA1TvqugVM1j4Au-16" value="&lt;font style=&quot;font-size: 14px;&quot;&gt;Send Email&lt;/font&gt;&lt;div&gt;&lt;font size=&quot;3&quot;&gt;to User&lt;/font&gt;&lt;/div&gt;" style="ellipse;whiteSpace=wrap;html=1;aspect=fixed;fillColor=#ffe6cc;strokeColor=#d79b00;" vertex="1" parent="1">
          <mxGeometry x="40" y="320" width="100" height="100" as="geometry" />
        </mxCell>
        <mxCell id="vO3fwdA1TvqugVM1j4Au-36" value="" style="edgeStyle=orthogonalEdgeStyle;rounded=0;orthogonalLoop=1;jettySize=auto;html=1;" edge="1" parent="1" source="vO3fwdA1TvqugVM1j4Au-17" target="vO3fwdA1TvqugVM1j4Au-19">
          <mxGeometry relative="1" as="geometry">
            <Array as="points">
              <mxPoint x="480" y="250" />
              <mxPoint x="480" y="250" />
            </Array>
          </mxGeometry>
        </mxCell>
        <mxCell id="vO3fwdA1TvqugVM1j4Au-17" value="&lt;font style=&quot;font-size: 14px;&quot;&gt;Check&lt;/font&gt;&lt;div&gt;&lt;font size=&quot;3&quot;&gt;Roles of&amp;nbsp;&lt;/font&gt;&lt;/div&gt;&lt;div&gt;&lt;font size=&quot;3&quot;&gt;Acess&lt;/font&gt;&lt;/div&gt;" style="ellipse;whiteSpace=wrap;html=1;aspect=fixed;fillColor=#ffe6cc;strokeColor=#d79b00;" vertex="1" parent="1">
          <mxGeometry x="440" y="60" width="100" height="100" as="geometry" />
        </mxCell>
        <mxCell id="vO3fwdA1TvqugVM1j4Au-18" value="&lt;font style=&quot;font-size: 14px;&quot;&gt;Check&lt;/font&gt;&lt;div&gt;&lt;font size=&quot;3&quot;&gt;Credentials&lt;/font&gt;&lt;/div&gt;" style="ellipse;whiteSpace=wrap;html=1;aspect=fixed;fillColor=#ffe6cc;strokeColor=#d79b00;" vertex="1" parent="1">
          <mxGeometry x="250" y="210" width="110" height="110" as="geometry" />
        </mxCell>
        <mxCell id="vO3fwdA1TvqugVM1j4Au-19" value="&lt;font style=&quot;font-size: 14px;&quot;&gt;Manage&lt;/font&gt;&lt;div&gt;&lt;font size=&quot;3&quot;&gt;Modules&lt;/font&gt;&lt;/div&gt;" style="ellipse;whiteSpace=wrap;html=1;aspect=fixed;fillColor=#ffe6cc;strokeColor=#d79b00;" vertex="1" parent="1">
          <mxGeometry x="450" y="230" width="100" height="100" as="geometry" />
        </mxCell>
        <mxCell id="vO3fwdA1TvqugVM1j4Au-20" value="&lt;font style=&quot;font-size: 14px;&quot;&gt;Manage Timetable&lt;/font&gt;&lt;div&gt;&lt;font size=&quot;3&quot;&gt;Details&lt;/font&gt;&lt;/div&gt;" style="rounded=0;whiteSpace=wrap;html=1;fillColor=#ffe6cc;strokeColor=#d79b00;" vertex="1" parent="1">
          <mxGeometry x="600" y="87.5" width="250" height="45" as="geometry" />
        </mxCell>
        <mxCell id="vO3fwdA1TvqugVM1j4Au-21" value="&lt;font style=&quot;font-size: 14px;&quot;&gt;Manage Attendence&lt;/font&gt;&lt;div&gt;&lt;font size=&quot;3&quot;&gt;Details&lt;/font&gt;&lt;/div&gt;" style="rounded=0;whiteSpace=wrap;html=1;fillColor=#ffe6cc;strokeColor=#d79b00;" vertex="1" parent="1">
          <mxGeometry x="600" y="160" width="250" height="50" as="geometry" />
        </mxCell>
        <mxCell id="vO3fwdA1TvqugVM1j4Au-22" value="&lt;font style=&quot;font-size: 14px;&quot;&gt;Manage Class Details&lt;/font&gt;" style="rounded=0;whiteSpace=wrap;html=1;fillColor=#ffe6cc;strokeColor=#d79b00;" vertex="1" parent="1">
          <mxGeometry x="600" y="235" width="250" height="45" as="geometry" />
        </mxCell>
        <mxCell id="vO3fwdA1TvqugVM1j4Au-23" value="&lt;font style=&quot;font-size: 14px;&quot;&gt;Manage Student&lt;/font&gt;&lt;div&gt;&lt;font size=&quot;3&quot;&gt;Details&lt;/font&gt;&lt;/div&gt;" style="rounded=0;whiteSpace=wrap;html=1;fillColor=#ffe6cc;strokeColor=#d79b00;" vertex="1" parent="1">
          <mxGeometry x="600" y="300" width="250" height="50" as="geometry" />
        </mxCell>
        <mxCell id="vO3fwdA1TvqugVM1j4Au-24" value="&lt;font style=&quot;font-size: 14px;&quot;&gt;Manage Fees Details&lt;/font&gt;" style="rounded=0;whiteSpace=wrap;html=1;fillColor=#ffe6cc;strokeColor=#d79b00;" vertex="1" parent="1">
          <mxGeometry x="600" y="370" width="250" height="50" as="geometry" />
        </mxCell>
        <mxCell id="vO3fwdA1TvqugVM1j4Au-25" value="&lt;font style=&quot;font-size: 14px;&quot;&gt;Manage Teacher&lt;/font&gt;&lt;div&gt;&lt;font size=&quot;3&quot;&gt;profiles&lt;/font&gt;&lt;/div&gt;" style="rounded=0;whiteSpace=wrap;html=1;fillColor=#ffe6cc;strokeColor=#d79b00;" vertex="1" parent="1">
          <mxGeometry x="600" y="440" width="250" height="50" as="geometry" />
        </mxCell>
        <mxCell id="vO3fwdA1TvqugVM1j4Au-26" value="&lt;font style=&quot;font-size: 14px;&quot;&gt;&amp;nbsp;Manage Report&lt;/font&gt;" style="rounded=0;whiteSpace=wrap;html=1;fillColor=#ffe6cc;strokeColor=#d79b00;" vertex="1" parent="1">
          <mxGeometry x="600" y="510" width="250" height="60" as="geometry" />
        </mxCell>
        <mxCell id="vO3fwdA1TvqugVM1j4Au-38" value="&lt;font style=&quot;font-size: 14px;&quot;&gt;Manage System&lt;/font&gt;&lt;div&gt;&lt;font size=&quot;3&quot;&gt;Admins&lt;/font&gt;&lt;/div&gt;" style="rounded=0;whiteSpace=wrap;html=1;fillColor=#ffe6cc;strokeColor=#d79b00;" vertex="1" parent="1">
          <mxGeometry x="10" y="630" width="210" height="60" as="geometry" />
        </mxCell>
        <mxCell id="vO3fwdA1TvqugVM1j4Au-39" value="&lt;font style=&quot;font-size: 14px;&quot;&gt;Manage Roles of User&lt;/font&gt;" style="rounded=0;whiteSpace=wrap;html=1;fillColor=#ffe6cc;strokeColor=#d79b00;" vertex="1" parent="1">
          <mxGeometry x="240" y="630" width="210" height="60" as="geometry" />
        </mxCell>
        <mxCell id="vO3fwdA1TvqugVM1j4Au-40" value="&lt;font style=&quot;font-size: 14px;&quot;&gt;Manage User&lt;/font&gt;&lt;div&gt;&lt;font size=&quot;3&quot;&gt;Permission&lt;/font&gt;&lt;/div&gt;" style="rounded=0;whiteSpace=wrap;html=1;fillColor=#ffe6cc;strokeColor=#d79b00;" vertex="1" parent="1">
          <mxGeometry x="510" y="630" width="220" height="60" as="geometry" />
        </mxCell>
        <mxCell id="vO3fwdA1TvqugVM1j4Au-41" value="" style="endArrow=classic;html=1;rounded=0;entryX=-0.032;entryY=0.58;entryDx=0;entryDy=0;entryPerimeter=0;" edge="1" parent="1" target="vO3fwdA1TvqugVM1j4Au-17">
          <mxGeometry width="50" height="50" relative="1" as="geometry">
            <mxPoint x="350" y="220" as="sourcePoint" />
            <mxPoint x="460" y="300" as="targetPoint" />
            <Array as="points">
              <mxPoint x="340" y="230" />
              <mxPoint x="350" y="220" />
            </Array>
          </mxGeometry>
        </mxCell>
        <mxCell id="vO3fwdA1TvqugVM1j4Au-42" value="" style="endArrow=classic;html=1;rounded=0;" edge="1" parent="1" target="vO3fwdA1TvqugVM1j4Au-39">
          <mxGeometry width="50" height="50" relative="1" as="geometry">
            <mxPoint x="500" y="330" as="sourcePoint" />
            <mxPoint x="460" y="300" as="targetPoint" />
            <Array as="points">
              <mxPoint x="500" y="330" />
            </Array>
          </mxGeometry>
        </mxCell>
        <mxCell id="vO3fwdA1TvqugVM1j4Au-43" value="" style="endArrow=classic;html=1;rounded=0;entryX=0.5;entryY=0;entryDx=0;entryDy=0;" edge="1" parent="1" source="vO3fwdA1TvqugVM1j4Au-19" target="vO3fwdA1TvqugVM1j4Au-38">
          <mxGeometry width="50" height="50" relative="1" as="geometry">
            <mxPoint x="410" y="480" as="sourcePoint" />
            <mxPoint x="460" y="430" as="targetPoint" />
          </mxGeometry>
        </mxCell>
        <mxCell id="vO3fwdA1TvqugVM1j4Au-44" value="" style="endArrow=classic;html=1;rounded=0;" edge="1" parent="1" target="vO3fwdA1TvqugVM1j4Au-40">
          <mxGeometry width="50" height="50" relative="1" as="geometry">
            <mxPoint x="510" y="340" as="sourcePoint" />
            <mxPoint x="460" y="430" as="targetPoint" />
            <Array as="points">
              <mxPoint x="520" y="330" />
              <mxPoint x="510" y="320" />
            </Array>
          </mxGeometry>
        </mxCell>
        <mxCell id="vO3fwdA1TvqugVM1j4Au-45" value="" style="endArrow=classic;html=1;rounded=0;entryX=0;entryY=0.5;entryDx=0;entryDy=0;" edge="1" parent="1" source="vO3fwdA1TvqugVM1j4Au-19" target="vO3fwdA1TvqugVM1j4Au-20">
          <mxGeometry width="50" height="50" relative="1" as="geometry">
            <mxPoint x="540" y="120" as="sourcePoint" />
            <mxPoint x="390" y="270" as="targetPoint" />
          </mxGeometry>
        </mxCell>
        <mxCell id="vO3fwdA1TvqugVM1j4Au-47" value="" style="endArrow=classic;html=1;rounded=0;exitX=1;exitY=0.318;exitDx=0;exitDy=0;exitPerimeter=0;entryX=0;entryY=0.5;entryDx=0;entryDy=0;" edge="1" parent="1" source="vO3fwdA1TvqugVM1j4Au-19" target="vO3fwdA1TvqugVM1j4Au-22">
          <mxGeometry width="50" height="50" relative="1" as="geometry">
            <mxPoint x="570" y="320" as="sourcePoint" />
            <mxPoint x="390" y="430" as="targetPoint" />
            <Array as="points" />
          </mxGeometry>
        </mxCell>
        <mxCell id="vO3fwdA1TvqugVM1j4Au-48" value="" style="endArrow=classic;html=1;rounded=0;exitX=1.016;exitY=0.622;exitDx=0;exitDy=0;exitPerimeter=0;entryX=0;entryY=0.5;entryDx=0;entryDy=0;" edge="1" parent="1" source="vO3fwdA1TvqugVM1j4Au-19" target="vO3fwdA1TvqugVM1j4Au-23">
          <mxGeometry width="50" height="50" relative="1" as="geometry">
            <mxPoint x="340" y="480" as="sourcePoint" />
            <mxPoint x="390" y="430" as="targetPoint" />
          </mxGeometry>
        </mxCell>
        <mxCell id="vO3fwdA1TvqugVM1j4Au-49" value="" style="endArrow=classic;html=1;rounded=0;entryX=0;entryY=0.5;entryDx=0;entryDy=0;exitX=0.936;exitY=0.766;exitDx=0;exitDy=0;exitPerimeter=0;" edge="1" parent="1" source="vO3fwdA1TvqugVM1j4Au-19" target="vO3fwdA1TvqugVM1j4Au-24">
          <mxGeometry width="50" height="50" relative="1" as="geometry">
            <mxPoint x="530" y="350" as="sourcePoint" />
            <mxPoint x="390" y="434.64" as="targetPoint" />
            <Array as="points" />
          </mxGeometry>
        </mxCell>
        <mxCell id="vO3fwdA1TvqugVM1j4Au-50" value="" style="endArrow=classic;html=1;rounded=0;exitX=1;exitY=1;exitDx=0;exitDy=0;entryX=0;entryY=0.25;entryDx=0;entryDy=0;" edge="1" parent="1" source="vO3fwdA1TvqugVM1j4Au-19" target="vO3fwdA1TvqugVM1j4Au-25">
          <mxGeometry width="50" height="50" relative="1" as="geometry">
            <mxPoint x="530" y="340" as="sourcePoint" />
            <mxPoint x="390" y="430" as="targetPoint" />
          </mxGeometry>
        </mxCell>
        <mxCell id="vO3fwdA1TvqugVM1j4Au-54" value="" style="endArrow=classic;html=1;rounded=0;exitX=1;exitY=0;exitDx=0;exitDy=0;" edge="1" parent="1" source="vO3fwdA1TvqugVM1j4Au-19">
          <mxGeometry width="50" height="50" relative="1" as="geometry">
            <mxPoint x="480" y="280" as="sourcePoint" />
            <mxPoint x="600" y="190" as="targetPoint" />
            <Array as="points">
              <mxPoint x="600" y="190" />
            </Array>
          </mxGeometry>
        </mxCell>
        <mxCell id="vO3fwdA1TvqugVM1j4Au-55" value="" style="endArrow=classic;html=1;rounded=0;exitX=0.776;exitY=0.966;exitDx=0;exitDy=0;exitPerimeter=0;entryX=0;entryY=0.25;entryDx=0;entryDy=0;" edge="1" parent="1" source="vO3fwdA1TvqugVM1j4Au-19" target="vO3fwdA1TvqugVM1j4Au-26">
          <mxGeometry width="50" height="50" relative="1" as="geometry">
            <mxPoint x="490" y="450" as="sourcePoint" />
            <mxPoint x="540" y="400" as="targetPoint" />
          </mxGeometry>
        </mxCell>
      </root>
    </mxGraphModel>
  </diagram>
</mxfile>
